<?xml version="1.0" encoding="utf-8"?>
<!-- Generator: Adobe Illustrator 23.1.0, SVG Export Plug-In . SVG Version: 6.00 Build 0)  -->
<svg version="1.1" id="Layer_1" xmlns="http://www.w3.org/2000/svg" xmlns:xlink="http://www.w3.org/1999/xlink" x="0px" y="0px"
	 viewBox="0 0 528 231" style="enable-background:new 0 0 528 231;" xml:space="preserve">
<style type="text/css">
	.st0{fill:none;stroke:#FF8B14;stroke-width:2;}
</style>
<g>
	<path class="st0" d="M186.4,33.3c75.7-23.7,153.5-63.2,233.2,9S549.4,177.7,517,259.5s-164.4,30.9-202.8,104s45.9,139.5,9.6,204.6
		c-36.4,65.1-64.3,106.8-181.1,65.4C25.9,592.1,36.7,486.8-52.2,425.2s-184.9-154-53-318.6S110.7,57,186.4,33.3L186.4,33.3z"/>
	<path class="st0" d="M176.9,71.2c61.6-19.2,124.9-51.3,189.7,7.3s105.6,110,79.3,176.4c-26.3,66.4-133.8,25.1-165,84.4
		c-31.2,59.4,37.4,113.3,7.8,166.1s-52.3,86.7-147.3,53.1c-95-33.5-86.3-119-158.5-169.1c-72.3-50.1-150.4-125-43.2-258.7
		S115.3,90.5,176.9,71.2L176.9,71.2z"/>
	<path class="st0" d="M159.2,96.4c50-15.7,101.3-41.9,153.9,5.9s85.7,89.7,64.3,143.9s-108.5,20.4-133.8,68.9
		c-25.3,48.4,30.3,92.4,6.3,135.5s-42.4,70.8-119.5,43.3c-77.1-27.4-70-97.2-128.6-138c-58.6-40.9-122.1-102-35-211.1
		C53.8,35.8,109.2,112.1,159.2,96.4L159.2,96.4z"/>
	<path class="st0" d="M140.7,127.2c40.3-12.6,81.7-33.6,124.1,4.8s69.1,72,51.9,115.5s-87.5,16.4-107.9,55.3s24.5,74.1,5.1,108.7
		s-34.2,56.8-96.4,34.8s-56.4-78-103.7-110.7s-98.4-81.8-28.2-169.4C55.7,78.5,100.4,139.8,140.7,127.2z"/>
	<path class="st0" d="M135.9,147c32.9-10.3,66.7-27.5,101.4,3.9c34.6,31.4,56.4,58.8,42.4,94.4c-14.1,35.5-71.5,13.4-88.2,45.2
		s20,60.6,4.2,88.9s-28,46.4-78.7,28.4c-50.8-18-46.1-63.7-84.7-90.5s-80.4-66.9-23.1-138.5C66.5,107.3,103,157.3,135.9,147
		L135.9,147z"/>
	<path class="st0" d="M126.8,161.4c26.7-8.4,54.2-22.3,82.3,3.2s45.8,47.8,34.4,76.6c-11.4,28.9-58,10.9-71.6,36.7
		c-13.5,25.8,16.2,49.2,3.4,72.2c-12.8,23-22.7,37.7-63.9,23.1S74,321.4,42.6,299.7c-31.4-21.8-65.3-54.3-18.7-112.4
		C70.4,129.1,100.1,169.8,126.8,161.4z"/>
</g>
</svg>
