<?xml version="1.0" encoding="utf-8"?>
<!-- Generator: Adobe Illustrator 23.1.0, SVG Export Plug-In . SVG Version: 6.00 Build 0)  -->
<svg version="1.1" id="Layer_1" xmlns="http://www.w3.org/2000/svg" xmlns:xlink="http://www.w3.org/1999/xlink" x="0px" y="0px"
	 viewBox="0 0 295.3 188.8" style="enable-background:new 0 0 295.3 188.8;" xml:space="preserve">
<style type="text/css">
	.st0{fill:none;stroke:#FF8B14;stroke-width:0.5;}
</style>
<g>
	<path class="st0" d="M-324.3-160.2c-75.7-23.7-153.5-63.2-233.2,9C-637.2-79-687.3-15.8-654.9,66c32.4,81.8,164.4,30.9,202.8,104
		c38.4,73.1-45.9,139.5-9.6,204.6c36.4,65.1,64.3,106.8,181.1,65.4c116.8-41.4,106-146.7,194.9-208.3S99.2,77.7-32.7-87
		S-248.6-136.5-324.3-160.2L-324.3-160.2z"/>
	<path class="st0" d="M-264.4-118.2c-61.6-19.2-124.9-51.3-189.7,7.3C-518.9-52.4-559.7-1-533.4,65.4c26.3,66.4,133.8,25.1,165,84.4
		c31.2,59.4-37.4,113.3-7.8,166.1c29.6,52.8,52.3,86.7,147.3,53.1S-142.6,250-70.4,199.9C1.9,149.9,80.1,74.9-27.2-58.8
		S-202.8-99-264.4-118.2z"/>
	<path class="st0" d="M-260.9-116.7c-61.6-19.2-124.9-51.3-189.7,7.3C-515.5-50.8-556.2,0.5-529.9,67c26.3,66.4,133.8,25.1,165,84.4
		c31.2,59.4-37.4,113.3-7.8,166.1c29.6,52.8,52.3,86.7,147.3,53.1s86.3-119.1,158.5-169.2C5.4,151.4,83.6,76.5-23.7-57.3
		S-199.3-97.5-260.9-116.7z"/>
	<path class="st0" d="M-216.5-84.9c-50-15.7-101.3-41.9-153.9,5.9C-423-31.1-456.1,10.8-434.7,65s108.5,20.4,133.8,68.9
		c25.3,48.4-30.3,92.4-6.3,135.5c24,43.1,42.4,70.8,119.5,43.3c77.1-27.4,70-97.2,128.6-138c58.6-40.9,122.1-102,35-211.1
		C-111.1-145.5-166.5-69.2-216.5-84.9L-216.5-84.9z"/>
	<path class="st0" d="M-211.9-84.9c-50-15.7-101.3-41.9-153.9,5.9c-52.6,47.8-85.7,89.7-64.3,143.9s108.5,20.4,133.8,68.9
		c25.3,48.4-30.3,92.4-6.3,135.5c24,43.1,42.4,70.8,119.5,43.3c77.1-27.4,70-97.2,128.6-138c58.6-40.9,122.1-102,35-211.1
		C-106.6-145.5-162-69.2-211.9-84.9L-211.9-84.9z"/>
	<path class="st0" d="M-178-58.6c-40.3-12.6-81.7-33.6-124.1,4.8s-69.1,72-51.9,115.5c17.2,43.5,87.5,16.4,107.9,55.3
		c20.4,38.9-24.5,74.1-5.1,108.7s34.2,56.8,96.4,34.8c62.2-22,56.4-78,103.7-110.7S47.5,67.9-22.8-19.7C-93-107.2-137.7-46-178-58.6
		L-178-58.6z"/>
	<path class="st0" d="M-174.5-56.7c-40.3-12.6-81.7-33.6-124.1,4.8s-69.1,72-51.9,115.5c17.2,43.5,87.5,16.4,107.9,55.3
		c20.4,38.9-24.5,74.1-5.1,108.7s34.2,56.8,96.4,34.8c62.2-22,56.4-78,103.7-110.7S50.9,69.7-19.3-17.8
		C-89.5-105.4-134.2-44.1-174.5-56.7L-174.5-56.7z"/>
	<path class="st0" d="M-150.1-38.4c-32.9-10.3-66.7-27.5-101.4,3.9c-34.6,31.4-56.4,58.8-42.4,94.4c14.1,35.5,71.5,13.4,88.2,45.2
		c16.7,31.8-20,60.6-4.2,88.9c15.8,28.3,28,46.4,78.7,28.4c50.8-18,46.1-63.7,84.7-90.5C-7.8,105.1,34,65-23.3-6.6
		C-80.7-78.2-117.2-28.1-150.1-38.4L-150.1-38.4z"/>
	<path class="st0" d="M-152.8-39.8c-32.9-10.3-66.7-27.5-101.4,3.9c-34.6,31.4-56.4,58.8-42.4,94.4c14.1,35.5,71.5,13.4,88.2,45.2
		c16.7,31.8-20,60.6-4.2,88.9c15.8,28.3,28,46.4,78.7,28.4c50.8-18,46.1-63.7,84.7-90.5C-10.5,103.7,31.3,63.6-26-8
		C-83.4-79.5-119.9-29.5-152.8-39.8L-152.8-39.8z"/>
	<path class="st0" d="M-146.5-37.2c-32.9-10.3-66.7-27.5-101.4,3.9c-34.6,31.4-56.4,58.8-42.4,94.4c14.1,35.5,71.5,13.4,88.2,45.2
		c16.7,31.8-20,60.6-4.2,88.9c15.8,28.3,28,46.4,78.7,28.4c50.8-18,46.1-63.7,84.7-90.5C-4.2,106.2,37.6,66.1-19.8-5.4
		C-77.1-77-113.6-26.9-146.5-37.2L-146.5-37.2z"/>
	<path class="st0" d="M-238-32.1c-26.7-8.4-54.2-22.3-82.3,3.2c-28.1,25.5-45.8,47.8-34.4,76.6c11.4,28.9,58,10.9,71.6,36.7
		c13.5,25.8-16.2,49.2-3.4,72.2c12.8,23,22.7,37.7,63.9,23.1s37.4-51.8,68.8-73.5c31.4-21.8,65.3-54.3,18.7-112.4
		C-181.7-64.4-211.3-23.7-238-32.1L-238-32.1z"/>
</g>
<g>
	<path class="st0" d="M221.9-0.6c-33-10.3-66.9-27.5-101.6,3.9C85.7,34.7,63.9,62.3,78,97.9c14.1,35.6,71.6,13.4,88.3,45.3
		s-20,60.7-4.2,89c15.8,28.3,28,46.5,78.9,28.5c50.9-18,46.2-63.8,84.9-90.7c38.7-26.8,80.5-67,23.1-138.7
		C291.5-40.4,254.9,9.7,221.9-0.6L221.9-0.6z"/>
	<path class="st0" d="M207.8,8.3C180.9-0.1,153.3-14,125,11.5C96.7,37,79,59.4,90.4,88.3c11.5,28.9,58.4,10.9,72,36.8
		s-16.3,49.3-3.4,72.3c12.9,23,22.8,37.8,64.3,23.1c41.5-14.6,37.6-51.8,69.2-73.6C324,125,358.1,92.4,311.3,34.2
		S234.7,16.7,207.8,8.3z"/>
	<path class="st0" d="M205.6,11.4c-26.9-8.4-54.5-22.3-82.8,3.2C94.5,40.1,76.8,62.5,88.2,91.4c11.5,28.9,58.4,10.9,72,36.8
		c13.6,25.9-16.3,49.3-3.4,72.3c12.9,23,22.8,37.8,64.3,23.1c41.5-14.6,37.6-51.8,69.2-73.6c31.5-21.8,65.6-54.4,18.8-112.6
		S232.5,19.8,205.6,11.4z"/>
	<path class="st0" d="M200.4,14.3C173.6,6,145.9-8,117.7,17.5C89.4,43,71.6,65.4,83.1,94.3c11.5,28.9,58.4,10.9,72,36.8
		c13.6,25.9-16.3,49.3-3.4,72.3c12.9,23,22.8,37.8,64.3,23.1c41.5-14.6,37.6-51.8,69.2-73.6c31.5-21.8,65.6-54.4,18.8-112.6
		S227.3,22.7,200.4,14.3z"/>
	<path class="st0" d="M198.2,15.7c-26.9-8.4-54.5-22.3-82.8,3.2C87.1,44.4,69.3,66.8,80.8,95.7c11.5,28.9,58.4,10.9,72,36.8
		c13.6,25.9-16.3,49.3-3.4,72.3c12.9,23,22.8,37.8,64.3,23.1c41.5-14.6,37.6-51.8,69.2-73.6c31.5-21.8,65.6-54.4,18.8-112.6
		S225,24.1,198.2,15.7z"/>
	<path class="st0" d="M197.4,16.7c-21.7-6.8-44.1-18.2-67,2.6c-22.9,20.8-37.3,39-28,62.6s47.2,8.9,58.2,30
		c11,21.1-13.2,40.2-2.8,59c10.4,18.8,18.5,30.8,52,18.9c33.5-11.9,30.5-42.3,56-60c25.5-17.8,53.1-44.4,15.2-91.8
		C243.2-9.7,219.1,23.5,197.4,16.7z"/>
	<path class="st0" d="M187.9,23.8c-17.5-5.5-35.6-14.6-54.1,2.1c-18.5,16.7-30.1,31.3-22.6,50.2c7.5,18.9,38.1,7.1,47,24
		c8.9,16.9-10.6,32.2-2.2,47.2c8.4,15,14.9,24.7,42,15.1c27.1-9.6,24.6-33.9,45.2-48.1c20.6-14.2,42.9-35.5,12.3-73.6
		S205.5,29.3,187.9,23.8L187.9,23.8z"/>
	<path class="st0" d="M183.4,28.1c-14.3-4.5-29.1-11.9-44.2,1.7c-15.1,13.6-24.6,25.6-18.4,41c6.1,15.5,31.1,5.8,38.4,19.6
		c7.3,13.8-8.7,26.4-1.8,38.7c6.9,12.3,12.2,20.2,34.3,12.4c22.1-7.8,20.1-27.7,36.9-39.4c16.8-11.7,35-29.1,10-60.2
		S197.7,32.5,183.4,28.1L183.4,28.1z"/>
	<path class="st0" d="M178.9,32c-11.6-3.6-23.6-9.7-35.9,1.4c-12.2,11.1-20,20.8-15,33.3c5,12.6,25.3,4.7,31.2,16
		c5.9,11.2-7.1,21.4-1.5,31.4c5.6,10,9.9,16.4,27.8,10c18-6.3,16.3-22.5,30-32c13.7-9.5,28.4-23.6,8.2-48.9
		C203.4,18,190.5,35.6,178.9,32L178.9,32z"/>
</g>
</svg>
